<svg xmlns="http://www.w3.org/2000/svg" width="29.265" height="25.489" viewBox="0 0 29.265 25.489"><defs><style>.a{fill:#6aaa9f;}.b{fill:#9a9d9b;}.c{fill:#a8c599;}</style></defs><g transform="translate(0 -31.347)"><path class="a" d="M362.346,300.628h-.787v-2.045a.779.779,0,0,0-.787-.787h-3.147a.779.779,0,0,0-.787.787v2.045h-.787a.779.779,0,0,0-.787.787v5.035a.779.779,0,0,0,.787.787h6.294a.779.779,0,0,0,.787-.787v-5.035A.779.779,0,0,0,362.346,300.628Z" transform="translate(-333.868 -250.401)"/><g transform="translate(3.147 36.382)"><rect class="b" width="1.573" height="2.203" transform="translate(10.699 9.031)"/><path class="b" d="M355.076,115.726a.779.779,0,0,0-.787-.787h-4.248v1.573H353.5v9.755h1.573V115.726Z" transform="translate(-332.105 -114.939)"/><path class="b" d="M53.032,114.939a.779.779,0,0,0-.787.787v10.542h1.573v-9.755H56.65v-1.573Z" transform="translate(-52.245 -114.939)"/></g><path class="c" d="M203.755,219.429v2.045a.779.779,0,0,0,.787.787h3.147a.779.779,0,0,0,.787-.787v-2.045Z" transform="translate(-191.483 -176.754)"/><path class="a" d="M134.323,32.134a.779.779,0,0,0-.787-.787H120.95a.779.779,0,0,0-.787.787V42.2a.779.779,0,0,0,.787.787h12.587a.779.779,0,0,0,.787-.787V32.134Z" transform="translate(-112.926)"/><path class="a" d="M179.993,297.8a.779.779,0,0,0-.787.787v2.045h-.787a.779.779,0,0,0-.787.787v5.035a.779.779,0,0,0,.787.787h6.293a.779.779,0,0,0,.787-.787v-5.035a.779.779,0,0,0-.787-.787h-.787v-2.045a.779.779,0,0,0-.787-.787h-3.147Z" transform="translate(-166.934 -250.401)"/><path class="a" d="M2.36,297.8a.779.779,0,0,0-.787.787v2.045H.787a.779.779,0,0,0-.787.787v5.035a.779.779,0,0,0,.787.787H7.08a.779.779,0,0,0,.787-.787v-5.035a.779.779,0,0,0-.787-.787H6.293v-2.045a.779.779,0,0,0-.787-.787H2.36Z" transform="translate(0 -250.401)"/></g></svg>