<svg xmlns="http://www.w3.org/2000/svg" width="29.265" height="29.265" viewBox="0 0 29.265 29.265"><defs><style>.a{fill:#adbac2;}.b{fill:#575f64;}.c{fill:#ffcebf;}.d{fill:#5e635f;}.e{fill:#ffb99c;}.f{fill:#fab005;}</style></defs><path class="a" d="M2.629,120A2.622,2.622,0,0,0,0,122.572v12a2.622,2.622,0,0,0,2.629,2.572h.857v4.4a.857.857,0,0,0,1.464.606l4.95-5.007h9.933a2.572,2.572,0,0,0,2.572-2.572v-12A2.572,2.572,0,0,0,19.834,120Zm0,0" transform="translate(0 -113.141)"/><path class="b" d="M97.059,301.715h-5.2a.857.857,0,0,1,0-1.715h5.2a.857.857,0,0,1,0,1.715Zm0,0" transform="translate(-85.799 -282.853)"/><path class="c" d="M188.382,221.94a.335.335,0,0,1-.109.085l-5.056,2.631a.866.866,0,0,1-1.14-1.14l2.631-5.056a.33.33,0,0,1,.085-.109l2.91.679.255.061Zm0,0" transform="translate(-171.597 -205.871)"/><path class="d" d="M417.542,3.892l-1.819,1.819-2.995-.643-.085-.012-.558-2.983L413.9.255a.849.849,0,0,1,1.212,0l2.425,2.425A.849.849,0,0,1,417.542,3.892Zm0,0" transform="translate(-388.532)"/><path class="e" d="M192.222,230.287l.424,2.849a.335.335,0,0,1-.109.085l-5.056,2.631a.844.844,0,0,1-.958-.182l5.444-5.444Zm0,0" transform="translate(-175.862 -217.067)"/><path class="b" d="M428.142,28.093l-1.819,1.819-2.995-.643,3.6-3.6,1.213,1.213A.849.849,0,0,1,428.142,28.093Zm0,0" transform="translate(-399.132 -24.201)"/><path class="f" d="M244.859,39.911,234.585,50.184a.5.5,0,0,1-.133.085l-3.589-3.589a.5.5,0,0,1,.085-.133l10.273-10.274Zm0,0" transform="translate(-217.668 -34.2)"/><path class="f" d="M274.459,69.913,264.186,80.186a.5.5,0,0,1-.133.085l-1.794-1.795L272.64,68.094Zm0,0" transform="translate(-247.268 -64.202)"/></svg>